<svg xmlns="http://www.w3.org/2000/svg" viewBox="0 0 100 100">
  <defs>
    <linearGradient id="grad" x1="0%" y1="0%" x2="100%" y2="100%">
      <stop offset="0%" style="stop-color:#4F46E5;stop-opacity:1" />
      <stop offset="100%" style="stop-color:#7C3AED;stop-opacity:1" />
    </linearGradient>
  </defs>

  <!-- Background circle -->
  <circle cx="50" cy="50" r="48" fill="url(#grad)"/>

  <!-- Badminton racket -->
  <g transform="translate(30, 20)">
    <!-- Racket head -->
    <ellipse cx="20" cy="20" rx="15" ry="18" fill="none" stroke="white" stroke-width="3"/>

    <!-- String pattern -->
    <line x1="10" y1="10" x2="10" y2="30" stroke="white" stroke-width="0.5" opacity="0.7"/>
    <line x1="15" y1="8" x2="15" y2="32" stroke="white" stroke-width="0.5" opacity="0.7"/>
    <line x1="20" y1="5" x2="20" y2="35" stroke="white" stroke-width="0.5" opacity="0.7"/>
    <line x1="25" y1="8" x2="25" y2="32" stroke="white" stroke-width="0.5" opacity="0.7"/>
    <line x1="30" y1="10" x2="30" y2="30" stroke="white" stroke-width="0.5" opacity="0.7"/>

    <line x1="8" y1="15" x2="32" y2="15" stroke="white" stroke-width="0.5" opacity="0.7"/>
    <line x1="5" y1="20" x2="35" y2="20" stroke="white" stroke-width="0.5" opacity="0.7"/>
    <line x1="8" y1="25" x2="32" y2="25" stroke="white" stroke-width="0.5" opacity="0.7"/>

    <!-- Racket handle -->
    <rect x="18" y="38" width="4" height="25" rx="2" fill="white"/>
    <rect x="16" y="60" width="8" height="3" rx="1.5" fill="white" opacity="0.8"/>
  </g>

  <!-- Shuttlecock -->
  <g transform="translate(55, 55) rotate(30)">
    <path d="M 0,0 L -3,8 L 3,8 Z" fill="white"/>
    <ellipse cx="0" cy="9" rx="3" ry="2" fill="white" opacity="0.9"/>
  </g>
</svg>
